<svg width="11" height="36" viewBox="0 0 11 36" fill="none" xmlns="http://www.w3.org/2000/svg">
<g clip-path="url(#clip0_27_6)">
<path d="M9.00001 8.99999L9.70712 9.7071L10.4142 8.99999L9.70712 8.29288L9.00001 8.99999ZM0.29291 1.70709L8.2929 9.7071L9.70712 8.29288L1.70712 0.292887L0.29291 1.70709ZM8.2929 8.29288L0.292908 16.2929L1.70712 17.7071L9.70712 9.7071L8.2929 8.29288Z" fill="#1A2C51"/>
</g>
<g clip-path="url(#clip1_27_6)">
<path d="M2.00003 27L1.29292 26.2929L0.585815 27L1.29292 27.7071L2.00003 27ZM10.7071 34.2929L2.70714 26.2929L1.29292 27.7071L9.29292 35.7071L10.7071 34.2929ZM2.70714 27.7071L10.7071 19.7071L9.29292 18.2929L1.29292 26.2929L2.70714 27.7071Z" fill="#1A2C51"/>
</g>
<defs>
<clipPath id="clip0_27_6">
<rect width="18" height="11" fill="white" transform="matrix(0 -1 1 0 0 18)"/>
</clipPath>
<clipPath id="clip1_27_6">
<rect width="18" height="11" fill="white" transform="matrix(0 -1 1 0 0 36)"/>
</clipPath>
</defs>
</svg>
